<svg width="227" height="37" viewBox="0 0 227 37" fill="none" xmlns="http://www.w3.org/2000/svg">
<rect width="47" height="36.5" rx="9" fill="#4A4658"/>
<path d="M25.75 26.5H25.25L25.75 27V26.5ZM25.75 10.75H26.25L25.75 10.25V10.75ZM26.5 26.5V27L27 26.5H26.5ZM26.5 10H27L26.5 9.5V10ZM10 10V9.5L9.5 10H10ZM10 26.5H9.5L10 27V26.5ZM10.75 26.5V27L11.25 26.5H10.75ZM10.75 10.75V10.25L10.25 10.75H10.75ZM17.875 13V12.5L17.375 13H17.875ZM17.875 24.25H17.375L17.875 24.75V24.25ZM18.625 13H19.125L18.625 12.5V13ZM18.625 24.25V24.75L19.125 24.25H18.625ZM36.25 26.5H35.75L36.25 27V26.5ZM36.25 10V9.5L35.75 10H36.25ZM37 26.5V27L37.5 26.5H37ZM37 10H37.5L37 9.5V10ZM34.75 18.625V19.125L35.25 18.625H34.75ZM28 18.625H27.5L28 19.125V18.625ZM34.75 17.875H35.25L34.75 17.375V17.875ZM28 17.875V17.375L27.5 17.875H28ZM26.25 26.5V10.75H25.25V26.5H26.25ZM26.5 26H25.75V27H26.5V26ZM26 10V26.5H27V10H26ZM25.75 10.5H26.5V9.5H25.75V10.5ZM10 10.5H25.75V9.5H10V10.5ZM10.5 10.375V10H9.5V10.375H10.5ZM10.5 10.75V10.375H9.5V10.75H10.5ZM10.5 26.5V10.75H9.5V26.5H10.5ZM10.75 26H10V27H10.75V26ZM10.25 10.75V26.5H11.25V10.75H10.25ZM25.75 10.25H10.75V11.25H25.75V10.25ZM17.375 13V24.25H18.375V13H17.375ZM18.625 12.5H17.875V13.5H18.625V12.5ZM19.125 24.25V13H18.125V24.25H19.125ZM17.875 24.75H18.625V23.75H17.875V24.75ZM36.75 26.5V10H35.75V26.5H36.75ZM37 26H36.25V27H37V26ZM36.5 10V26.5H37.5V10H36.5ZM36.25 10.5H37V9.5H36.25V10.5ZM34.75 18.125H28V19.125H34.75V18.125ZM34.25 17.875V18.625H35.25V17.875H34.25ZM28 18.375H34.75V17.375H28V18.375ZM28.5 18.625V17.875H27.5V18.625H28.5Z" fill="#BBB2D4"/>
<path d="M56.92 26V9.2H60.76L65.224 24.728H65.536L70 9.2H73.84V26H71.896V10.52H71.56L67.12 26H63.64L59.2 10.52H58.864V26H56.92ZM81.3576 26.336C80.5416 26.336 79.7976 26.192 79.1256 25.904C78.4536 25.616 77.9256 25.2 77.5416 24.656C77.1576 24.112 76.9656 23.448 76.9656 22.664C76.9656 21.864 77.1576 21.208 77.5416 20.696C77.9256 20.168 78.4536 19.776 79.1256 19.52C79.7976 19.248 80.5496 19.112 81.3816 19.112H85.3416V18.248C85.3416 17.416 85.0936 16.76 84.5976 16.28C84.1176 15.8 83.3976 15.56 82.4376 15.56C81.4936 15.56 80.7576 15.792 80.2296 16.256C79.7016 16.704 79.3416 17.312 79.1496 18.08L77.3736 17.504C77.5656 16.848 77.8696 16.256 78.2856 15.728C78.7016 15.184 79.2536 14.752 79.9416 14.432C80.6456 14.096 81.4856 13.928 82.4616 13.928C83.9656 13.928 85.1336 14.32 85.9656 15.104C86.7976 15.872 87.2136 16.96 87.2136 18.368V23.672C87.2136 24.152 87.4376 24.392 87.8856 24.392H88.9656V26H87.3096C86.7816 26 86.3576 25.856 86.0376 25.568C85.7176 25.264 85.5576 24.864 85.5576 24.368V24.248H85.2696C85.0936 24.552 84.8536 24.872 84.5496 25.208C84.2616 25.528 83.8616 25.792 83.3496 26C82.8376 26.224 82.1736 26.336 81.3576 26.336ZM81.5736 24.704C82.6936 24.704 83.5976 24.376 84.2856 23.72C84.9896 23.048 85.3416 22.112 85.3416 20.912V20.648H81.4536C80.7016 20.648 80.0776 20.816 79.5816 21.152C79.1016 21.472 78.8616 21.96 78.8616 22.616C78.8616 23.272 79.1096 23.784 79.6056 24.152C80.1176 24.52 80.7736 24.704 81.5736 24.704ZM81.2616 12.68L83.1096 9.416H85.3896L83.0856 12.68H81.2616ZM91.5623 26V14.264H93.4103V15.704H93.7463C93.9543 15.192 94.2743 14.816 94.7063 14.576C95.1383 14.336 95.7063 14.216 96.4103 14.216H97.8023V15.944H96.2903C95.4423 15.944 94.7543 16.184 94.2263 16.664C93.7143 17.128 93.4583 17.856 93.4583 18.848V26H91.5623ZM100.609 26V14.264H102.505V26H100.609ZM101.569 12.44C101.153 12.44 100.801 12.304 100.513 12.032C100.241 11.76 100.105 11.416 100.105 11C100.105 10.568 100.241 10.216 100.513 9.944C100.801 9.672 101.153 9.536 101.569 9.536C101.985 9.536 102.329 9.672 102.601 9.944C102.873 10.216 103.009 10.568 103.009 11C103.009 11.416 102.873 11.76 102.601 12.032C102.329 12.304 101.985 12.44 101.569 12.44ZM111.916 26.336C110.732 26.336 109.684 26.088 108.772 25.592C107.876 25.096 107.172 24.4 106.66 23.504C106.164 22.592 105.916 21.52 105.916 20.288V19.976C105.916 18.76 106.164 17.696 106.66 16.784C107.172 15.872 107.876 15.168 108.772 14.672C109.684 14.176 110.732 13.928 111.916 13.928C113.1 13.928 114.14 14.176 115.036 14.672C115.948 15.168 116.652 15.872 117.148 16.784C117.66 17.696 117.916 18.76 117.916 19.976V20.288C117.916 21.52 117.66 22.592 117.148 23.504C116.652 24.4 115.948 25.096 115.036 25.592C114.14 26.088 113.1 26.336 111.916 26.336ZM111.916 24.632C113.164 24.632 114.156 24.24 114.892 23.456C115.644 22.656 116.02 21.584 116.02 20.24V20.024C116.02 18.68 115.644 17.616 114.892 16.832C114.156 16.032 113.164 15.632 111.916 15.632C110.684 15.632 109.692 16.032 108.94 16.832C108.188 17.616 107.812 18.68 107.812 20.024V20.24C107.812 21.584 108.188 22.656 108.94 23.456C109.692 24.24 110.684 24.632 111.916 24.632ZM127.42 26V9.2H129.436V16.664H137.308V9.2H139.324V26H137.308V18.488H129.436V26H127.42ZM147.73 26.216C146.882 26.216 146.098 26.032 145.378 25.664C144.674 25.296 144.114 24.752 143.698 24.032C143.298 23.296 143.098 22.408 143.098 21.368V14.264H144.994V21.224C144.994 22.392 145.282 23.24 145.858 23.768C146.45 24.296 147.242 24.56 148.234 24.56C149.354 24.56 150.274 24.192 150.994 23.456C151.714 22.72 152.074 21.624 152.074 20.168V14.264H153.97V26H152.122V24.008H151.786C151.53 24.568 151.09 25.08 150.466 25.544C149.842 25.992 148.93 26.216 147.73 26.216ZM150.754 12.464C150.354 12.464 150.018 12.336 149.746 12.08C149.474 11.808 149.338 11.456 149.338 11.024C149.338 10.592 149.474 10.248 149.746 9.992C150.018 9.736 150.354 9.608 150.754 9.608C151.186 9.608 151.53 9.736 151.786 9.992C152.058 10.248 152.194 10.592 152.194 11.024C152.194 11.456 152.058 11.808 151.786 12.08C151.53 12.336 151.186 12.464 150.754 12.464ZM146.266 12.464C145.85 12.464 145.506 12.336 145.234 12.08C144.962 11.808 144.826 11.456 144.826 11.024C144.826 10.592 144.962 10.248 145.234 9.992C145.506 9.736 145.85 9.608 146.266 9.608C146.682 9.608 147.026 9.736 147.298 9.992C147.57 10.248 147.706 10.592 147.706 11.024C147.706 11.456 147.57 11.808 147.298 12.08C147.026 12.336 146.682 12.464 146.266 12.464ZM162.257 26C161.585 26 161.065 25.816 160.697 25.448C160.345 25.08 160.169 24.576 160.169 23.936V15.92H156.641V14.264H160.169V10.088H162.065V14.264H165.137V15.92H162.065V23.648C162.065 24.128 162.297 24.368 162.761 24.368H165.377V26H162.257ZM169.985 26C169.313 26 168.793 25.816 168.425 25.448C168.057 25.08 167.873 24.576 167.873 23.936V15.92H165.137V14.264H167.873V10.088H169.769V14.264H173.633V15.92H169.769V23.648C169.769 24.128 170.009 24.368 170.489 24.368H173.105V26H169.985ZM182.087 26.336C180.903 26.336 179.863 26.088 178.967 25.592C178.071 25.08 177.375 24.368 176.879 23.456C176.383 22.544 176.135 21.488 176.135 20.288V20C176.135 18.784 176.383 17.72 176.879 16.808C177.375 15.896 178.063 15.192 178.943 14.696C179.823 14.184 180.831 13.928 181.967 13.928C183.071 13.928 184.047 14.168 184.895 14.648C185.743 15.112 186.407 15.784 186.887 16.664C187.367 17.544 187.607 18.576 187.607 19.76V20.624H178.031C178.079 21.888 178.487 22.88 179.255 23.6C180.023 24.304 180.983 24.656 182.135 24.656C183.143 24.656 183.919 24.424 184.463 23.96C185.007 23.496 185.423 22.944 185.711 22.304L187.343 23.096C187.103 23.592 186.767 24.088 186.335 24.584C185.919 25.08 185.367 25.496 184.679 25.832C184.007 26.168 183.143 26.336 182.087 26.336ZM178.055 19.064H185.687C185.623 17.976 185.247 17.128 184.559 16.52C183.887 15.912 183.023 15.608 181.967 15.608C180.895 15.608 180.015 15.912 179.327 16.52C178.639 17.128 178.215 17.976 178.055 19.064ZM190.914 26V14.264H192.762V16.256H193.098C193.354 15.696 193.786 15.192 194.394 14.744C195.018 14.28 195.93 14.048 197.13 14.048C198.01 14.048 198.794 14.232 199.482 14.6C200.186 14.968 200.746 15.512 201.162 16.232C201.578 16.952 201.786 17.84 201.786 18.896V26H199.89V19.04C199.89 17.872 199.594 17.024 199.002 16.496C198.426 15.968 197.642 15.704 196.65 15.704C195.514 15.704 194.586 16.072 193.866 16.808C193.162 17.544 192.81 18.64 192.81 20.096V26H190.914ZM211.009 26.336C209.825 26.336 208.785 26.088 207.889 25.592C206.993 25.08 206.297 24.368 205.801 23.456C205.305 22.544 205.057 21.488 205.057 20.288V20C205.057 18.784 205.305 17.72 205.801 16.808C206.297 15.896 206.985 15.192 207.865 14.696C208.745 14.184 209.753 13.928 210.889 13.928C211.993 13.928 212.969 14.168 213.817 14.648C214.665 15.112 215.329 15.784 215.809 16.664C216.289 17.544 216.529 18.576 216.529 19.76V20.624H206.953C207.001 21.888 207.409 22.88 208.177 23.6C208.945 24.304 209.905 24.656 211.057 24.656C212.065 24.656 212.841 24.424 213.385 23.96C213.929 23.496 214.345 22.944 214.633 22.304L216.265 23.096C216.025 23.592 215.689 24.088 215.257 24.584C214.841 25.08 214.289 25.496 213.601 25.832C212.929 26.168 212.065 26.336 211.009 26.336ZM206.977 19.064H214.609C214.545 17.976 214.169 17.128 213.481 16.52C212.809 15.912 211.945 15.608 210.889 15.608C209.817 15.608 208.937 15.912 208.249 16.52C207.561 17.128 207.137 17.976 206.977 19.064ZM219.836 26V14.264H221.684V15.704H222.02C222.228 15.192 222.548 14.816 222.98 14.576C223.412 14.336 223.98 14.216 224.684 14.216H226.076V15.944H224.564C223.716 15.944 223.028 16.184 222.5 16.664C221.988 17.128 221.732 17.856 221.732 18.848V26H219.836Z" fill="#1E1E1E"/>
</svg>
