<?xml version="1.0" standalone="no"?>
<!DOCTYPE svg PUBLIC "-//W3C//DTD SVG 20010904//EN"
 "http://www.w3.org/TR/2001/REC-SVG-20010904/DTD/svg10.dtd">
<svg version="1.0" xmlns="http://www.w3.org/2000/svg"
 width="846.000000pt" height="846.000000pt" viewBox="0 0 846.000000 846.000000"
 preserveAspectRatio="xMidYMid meet">
<metadata>
Created by potrace 1.14, written by Peter Selinger 2001-2017
</metadata>
<g transform="translate(0.000000,846.000000) scale(0.100000,-0.100000)"
fill="#000000" stroke="none">
<path d="M1469 7506 c-2 -2 -33 -7 -69 -11 -36 -4 -68 -9 -71 -11 -4 -2 -24
-6 -45 -9 -22 -3 -50 -10 -64 -15 -24 -8 -78 -23 -92 -24 -3 -1 -10 -4 -14 -8
-4 -5 -14 -8 -23 -8 -9 -1 -34 -9 -56 -20 -22 -11 -44 -19 -49 -20 -6 0 -51
-21 -100 -46 -315 -162 -560 -411 -721 -734 -36 -73 -98 -233 -110 -288 -2 -9
-14 -62 -27 -117 l-23 -100 0 -1835 c0 -1009 3 -1862 7 -1895 7 -56 11 -78 23
-140 3 -14 7 -37 10 -52 21 -104 127 -353 207 -483 42 -69 151 -203 224 -275
78 -78 235 -205 252 -205 6 0 12 -4 14 -8 6 -14 140 -87 238 -129 91 -39 201
-76 259 -89 224 -46 -1 -43 3011 -40 1532 1 2803 6 2825 10 22 4 76 16 120 27
44 11 89 22 100 24 82 18 280 106 395 177 322 197 571 512 686 867 28 86 45
146 50 181 2 14 6 34 9 46 2 11 8 45 12 75 10 68 11 3676 1 3744 -30 205 -107
442 -185 567 -13 21 -23 40 -23 44 0 9 -123 183 -161 228 -234 273 -558 468
-899 540 -41 8 -91 19 -110 23 -35 7 -5593 16 -5601 9z"/>
</g>
</svg>
